# xmcd CD database file
#
# Track frame offsets:
#	150
#	13812
#	30305
#	43661
#	60638
#	76346
#	90778
#	105853
#	121648
#	139027
#
# Disc length: 2060 seconds
#
# Revision: 0
# Processed by: cddbd v1.5.2PL0 Copyright (c) Steve Scherf et al.
# Submitted via: CDex 1.70beta2
#
DISCID=65080a0a
DTITLE=Jore Siltala - Polte veress‰
DYEAR=2011
DGENRE=Country
TTITLE0=Polte veress‰
TTITLE1=Repaleinen kuu
TTITLE2=Taskut tyhjin‰
TTITLE3=Kun m‰ kuljen luokse sun
TTITLE4=Yksin‰inen cowboy
TTITLE5=S‰ olet maailmain
TTITLE6=Ei k‰y
TTITLE7=Se on vain tarinaa
TTITLE8=En pyyd‰ enemp‰‰
TTITLE9=Rakkain nyt viereeni j‰‰
EXTD=YEAR: 2011
EXTT0=
EXTT1=
EXTT2=
EXTT3=
EXTT4=
EXTT5=
EXTT6=
EXTT7=
EXTT8=
EXTT9=
PLAYORDER=
